<mxfile host="app.diagrams.net" agent="Mozilla/5.0 (Macintosh; Intel Mac OS X 10_15_7) AppleWebKit/537.36 (KHTML, like Gecko) Chrome/131.0.0.0 Safari/537.36" version="26.0.4">
  <diagram name="Page-1" id="a7904f86-f2b4-8e86-fa97-74104820619b">
    <mxGraphModel dx="318" dy="179" grid="1" gridSize="10" guides="1" tooltips="1" connect="1" arrows="1" fold="1" page="1" pageScale="1" pageWidth="1100" pageHeight="850" background="none" math="0" shadow="0">
      <root>
        <mxCell id="0" />
        <mxCell id="1" parent="0" />
        <mxCell id="_Mf7b5W_oBMYDt20IuVR-1" value="CATEGORIA" style="rounded=0;whiteSpace=wrap;html=1;" vertex="1" parent="1">
          <mxGeometry x="210" y="120" width="120" height="40" as="geometry" />
        </mxCell>
        <mxCell id="_Mf7b5W_oBMYDt20IuVR-2" value="" style="group" connectable="0" vertex="1" parent="1">
          <mxGeometry x="70" y="124" width="140" height="30" as="geometry" />
        </mxCell>
        <mxCell id="_Mf7b5W_oBMYDt20IuVR-3" value="" style="group;rotation=-180;" connectable="0" vertex="1" parent="_Mf7b5W_oBMYDt20IuVR-2">
          <mxGeometry x="100" y="5" width="40" height="20" as="geometry" />
        </mxCell>
        <mxCell id="_Mf7b5W_oBMYDt20IuVR-4" value="" style="ellipse;whiteSpace=wrap;html=1;aspect=fixed;fillColor=#000000;rotation=-180;" vertex="1" parent="_Mf7b5W_oBMYDt20IuVR-3">
          <mxGeometry width="20" height="20" as="geometry" />
        </mxCell>
        <mxCell id="_Mf7b5W_oBMYDt20IuVR-5" value="" style="endArrow=none;html=1;rounded=0;entryX=0;entryY=0.5;entryDx=0;entryDy=0;" edge="1" parent="_Mf7b5W_oBMYDt20IuVR-3" target="_Mf7b5W_oBMYDt20IuVR-4">
          <mxGeometry width="50" height="50" relative="1" as="geometry">
            <mxPoint x="40" y="10" as="sourcePoint" />
            <mxPoint x="10" y="35" as="targetPoint" />
          </mxGeometry>
        </mxCell>
        <mxCell id="_Mf7b5W_oBMYDt20IuVR-6" value="CAT" style="text;html=1;align=right;verticalAlign=middle;whiteSpace=wrap;rounded=0;" vertex="1" parent="_Mf7b5W_oBMYDt20IuVR-2">
          <mxGeometry width="90" height="30" as="geometry" />
        </mxCell>
        <mxCell id="_Mf7b5W_oBMYDt20IuVR-7" value="" style="group" connectable="0" vertex="1" parent="1">
          <mxGeometry x="220" y="45" width="90" height="75" as="geometry" />
        </mxCell>
        <mxCell id="_Mf7b5W_oBMYDt20IuVR-8" value="NOMEESTESO" style="text;html=1;align=center;verticalAlign=middle;whiteSpace=wrap;rounded=0;" vertex="1" parent="_Mf7b5W_oBMYDt20IuVR-7">
          <mxGeometry y="15" width="90" height="20" as="geometry" />
        </mxCell>
        <mxCell id="_Mf7b5W_oBMYDt20IuVR-9" value="" style="group;rotation=90;" connectable="0" vertex="1" parent="_Mf7b5W_oBMYDt20IuVR-7">
          <mxGeometry x="25" y="45" width="40" height="20" as="geometry" />
        </mxCell>
        <mxCell id="_Mf7b5W_oBMYDt20IuVR-10" value="" style="ellipse;whiteSpace=wrap;html=1;aspect=fixed;fillColor=#FAFAFA;rotation=-90;labelBackgroundColor=default;" vertex="1" parent="_Mf7b5W_oBMYDt20IuVR-9">
          <mxGeometry x="10" y="-10" width="20" height="20" as="geometry" />
        </mxCell>
        <mxCell id="_Mf7b5W_oBMYDt20IuVR-11" value="" style="endArrow=none;html=1;rounded=0;entryX=0;entryY=0.5;entryDx=0;entryDy=0;" edge="1" parent="_Mf7b5W_oBMYDt20IuVR-9" target="_Mf7b5W_oBMYDt20IuVR-10">
          <mxGeometry width="50" height="50" relative="1" as="geometry">
            <mxPoint x="20" y="30" as="sourcePoint" />
            <mxPoint x="-5" as="targetPoint" />
          </mxGeometry>
        </mxCell>
        <mxCell id="_Mf7b5W_oBMYDt20IuVR-17" value="" style="group" connectable="0" vertex="1" parent="1">
          <mxGeometry x="330" y="125" width="134" height="30" as="geometry" />
        </mxCell>
        <mxCell id="_Mf7b5W_oBMYDt20IuVR-18" value="DESCRIZIONE" style="text;html=1;align=left;verticalAlign=middle;whiteSpace=wrap;rounded=0;container=0;" vertex="1" parent="_Mf7b5W_oBMYDt20IuVR-17">
          <mxGeometry x="44" width="90" height="30" as="geometry" />
        </mxCell>
        <mxCell id="_Mf7b5W_oBMYDt20IuVR-19" value="" style="ellipse;whiteSpace=wrap;html=1;aspect=fixed;container=0;" vertex="1" parent="_Mf7b5W_oBMYDt20IuVR-17">
          <mxGeometry x="20" y="5" width="20" height="20" as="geometry" />
        </mxCell>
        <mxCell id="_Mf7b5W_oBMYDt20IuVR-20" value="" style="endArrow=none;html=1;rounded=0;entryX=0;entryY=0.5;entryDx=0;entryDy=0;" edge="1" parent="_Mf7b5W_oBMYDt20IuVR-17" target="_Mf7b5W_oBMYDt20IuVR-19">
          <mxGeometry width="50" height="50" relative="1" as="geometry">
            <mxPoint y="15" as="sourcePoint" />
            <mxPoint x="30" y="-10" as="targetPoint" />
          </mxGeometry>
        </mxCell>
        <mxCell id="_Mf7b5W_oBMYDt20IuVR-21" value="CUCINA" style="rounded=0;whiteSpace=wrap;html=1;" vertex="1" parent="1">
          <mxGeometry x="770" y="315" width="120" height="40" as="geometry" />
        </mxCell>
        <mxCell id="_Mf7b5W_oBMYDt20IuVR-23" value="" style="group" connectable="0" vertex="1" parent="1">
          <mxGeometry x="630" y="325" width="140" height="30" as="geometry" />
        </mxCell>
        <mxCell id="_Mf7b5W_oBMYDt20IuVR-24" value="" style="group;rotation=-180;" connectable="0" vertex="1" parent="_Mf7b5W_oBMYDt20IuVR-23">
          <mxGeometry x="100" y="5" width="40" height="20" as="geometry" />
        </mxCell>
        <mxCell id="_Mf7b5W_oBMYDt20IuVR-25" value="" style="ellipse;whiteSpace=wrap;html=1;aspect=fixed;fillColor=#000000;rotation=-180;" vertex="1" parent="_Mf7b5W_oBMYDt20IuVR-24">
          <mxGeometry width="20" height="20" as="geometry" />
        </mxCell>
        <mxCell id="_Mf7b5W_oBMYDt20IuVR-26" value="" style="endArrow=none;html=1;rounded=0;entryX=0;entryY=0.5;entryDx=0;entryDy=0;" edge="1" parent="_Mf7b5W_oBMYDt20IuVR-24" target="_Mf7b5W_oBMYDt20IuVR-25">
          <mxGeometry width="50" height="50" relative="1" as="geometry">
            <mxPoint x="40" y="10" as="sourcePoint" />
            <mxPoint x="10" y="35" as="targetPoint" />
          </mxGeometry>
        </mxCell>
        <mxCell id="_Mf7b5W_oBMYDt20IuVR-27" value="ID" style="text;html=1;align=right;verticalAlign=middle;whiteSpace=wrap;rounded=0;" vertex="1" parent="_Mf7b5W_oBMYDt20IuVR-23">
          <mxGeometry width="90" height="30" as="geometry" />
        </mxCell>
        <mxCell id="_Mf7b5W_oBMYDt20IuVR-29" value="" style="group" connectable="0" vertex="1" parent="1">
          <mxGeometry x="743" y="240" width="137" height="75" as="geometry" />
        </mxCell>
        <mxCell id="_Mf7b5W_oBMYDt20IuVR-30" value="NOME" style="text;html=1;align=center;verticalAlign=middle;whiteSpace=wrap;rounded=0;" vertex="1" parent="_Mf7b5W_oBMYDt20IuVR-29">
          <mxGeometry y="15" width="90" height="20" as="geometry" />
        </mxCell>
        <mxCell id="_Mf7b5W_oBMYDt20IuVR-31" value="" style="group;rotation=90;" connectable="0" vertex="1" parent="_Mf7b5W_oBMYDt20IuVR-29">
          <mxGeometry x="25" y="45" width="40" height="20" as="geometry" />
        </mxCell>
        <mxCell id="_Mf7b5W_oBMYDt20IuVR-32" value="" style="ellipse;whiteSpace=wrap;html=1;aspect=fixed;fillColor=#FAFAFA;rotation=-90;labelBackgroundColor=default;" vertex="1" parent="_Mf7b5W_oBMYDt20IuVR-31">
          <mxGeometry x="10" y="-10" width="20" height="20" as="geometry" />
        </mxCell>
        <mxCell id="_Mf7b5W_oBMYDt20IuVR-33" value="" style="endArrow=none;html=1;rounded=0;entryX=0;entryY=0.5;entryDx=0;entryDy=0;" edge="1" parent="_Mf7b5W_oBMYDt20IuVR-31" target="_Mf7b5W_oBMYDt20IuVR-32">
          <mxGeometry width="50" height="50" relative="1" as="geometry">
            <mxPoint x="20" y="30" as="sourcePoint" />
            <mxPoint x="-5" as="targetPoint" />
          </mxGeometry>
        </mxCell>
        <mxCell id="_Mf7b5W_oBMYDt20IuVR-34" value="" style="group" connectable="0" vertex="1" parent="_Mf7b5W_oBMYDt20IuVR-29">
          <mxGeometry x="47" width="90" height="75" as="geometry" />
        </mxCell>
        <mxCell id="_Mf7b5W_oBMYDt20IuVR-35" value="PREZZO" style="text;html=1;align=center;verticalAlign=middle;whiteSpace=wrap;rounded=0;" vertex="1" parent="_Mf7b5W_oBMYDt20IuVR-34">
          <mxGeometry y="15" width="90" height="20" as="geometry" />
        </mxCell>
        <mxCell id="_Mf7b5W_oBMYDt20IuVR-36" value="" style="group;rotation=90;" connectable="0" vertex="1" parent="_Mf7b5W_oBMYDt20IuVR-34">
          <mxGeometry x="25" y="45" width="40" height="20" as="geometry" />
        </mxCell>
        <mxCell id="_Mf7b5W_oBMYDt20IuVR-37" value="" style="ellipse;whiteSpace=wrap;html=1;aspect=fixed;fillColor=#FAFAFA;rotation=-90;labelBackgroundColor=default;" vertex="1" parent="_Mf7b5W_oBMYDt20IuVR-36">
          <mxGeometry x="10" y="-10" width="20" height="20" as="geometry" />
        </mxCell>
        <mxCell id="_Mf7b5W_oBMYDt20IuVR-38" value="" style="endArrow=none;html=1;rounded=0;entryX=0;entryY=0.5;entryDx=0;entryDy=0;" edge="1" parent="_Mf7b5W_oBMYDt20IuVR-36" target="_Mf7b5W_oBMYDt20IuVR-37">
          <mxGeometry width="50" height="50" relative="1" as="geometry">
            <mxPoint x="20" y="30" as="sourcePoint" />
            <mxPoint x="-5" as="targetPoint" />
          </mxGeometry>
        </mxCell>
        <mxCell id="_Mf7b5W_oBMYDt20IuVR-39" value="" style="group" connectable="0" vertex="1" parent="1">
          <mxGeometry x="890" y="310" width="134" height="55" as="geometry" />
        </mxCell>
        <mxCell id="_Mf7b5W_oBMYDt20IuVR-40" value="VEGET" style="text;html=1;align=left;verticalAlign=middle;whiteSpace=wrap;rounded=0;container=0;" vertex="1" parent="_Mf7b5W_oBMYDt20IuVR-39">
          <mxGeometry x="44" width="90" height="30" as="geometry" />
        </mxCell>
        <mxCell id="_Mf7b5W_oBMYDt20IuVR-41" value="" style="ellipse;whiteSpace=wrap;html=1;aspect=fixed;container=0;" vertex="1" parent="_Mf7b5W_oBMYDt20IuVR-39">
          <mxGeometry x="20" y="5" width="20" height="20" as="geometry" />
        </mxCell>
        <mxCell id="_Mf7b5W_oBMYDt20IuVR-42" value="" style="endArrow=none;html=1;rounded=0;entryX=0;entryY=0.5;entryDx=0;entryDy=0;" edge="1" parent="_Mf7b5W_oBMYDt20IuVR-39" target="_Mf7b5W_oBMYDt20IuVR-41">
          <mxGeometry width="50" height="50" relative="1" as="geometry">
            <mxPoint y="15" as="sourcePoint" />
            <mxPoint x="30" y="-10" as="targetPoint" />
          </mxGeometry>
        </mxCell>
        <mxCell id="_Mf7b5W_oBMYDt20IuVR-43" value="" style="group" connectable="0" vertex="1" parent="_Mf7b5W_oBMYDt20IuVR-39">
          <mxGeometry y="25" width="134" height="30" as="geometry" />
        </mxCell>
        <mxCell id="_Mf7b5W_oBMYDt20IuVR-44" value="PATH" style="text;html=1;align=left;verticalAlign=middle;whiteSpace=wrap;rounded=0;container=0;" vertex="1" parent="_Mf7b5W_oBMYDt20IuVR-43">
          <mxGeometry x="44" width="90" height="30" as="geometry" />
        </mxCell>
        <mxCell id="_Mf7b5W_oBMYDt20IuVR-45" value="" style="ellipse;whiteSpace=wrap;html=1;aspect=fixed;container=0;" vertex="1" parent="_Mf7b5W_oBMYDt20IuVR-43">
          <mxGeometry x="20" y="5" width="20" height="20" as="geometry" />
        </mxCell>
        <mxCell id="_Mf7b5W_oBMYDt20IuVR-46" value="" style="endArrow=none;html=1;rounded=0;entryX=0;entryY=0.5;entryDx=0;entryDy=0;" edge="1" parent="_Mf7b5W_oBMYDt20IuVR-43" target="_Mf7b5W_oBMYDt20IuVR-45">
          <mxGeometry width="50" height="50" relative="1" as="geometry">
            <mxPoint y="15" as="sourcePoint" />
            <mxPoint x="30" y="-10" as="targetPoint" />
          </mxGeometry>
        </mxCell>
        <mxCell id="_Mf7b5W_oBMYDt20IuVR-47" value="PIZZA" style="rounded=0;whiteSpace=wrap;html=1;" vertex="1" parent="1">
          <mxGeometry x="322" y="315" width="120" height="40" as="geometry" />
        </mxCell>
        <mxCell id="_Mf7b5W_oBMYDt20IuVR-51" value="" style="group" connectable="0" vertex="1" parent="1">
          <mxGeometry x="240" y="240" width="137" height="75" as="geometry" />
        </mxCell>
        <mxCell id="_Mf7b5W_oBMYDt20IuVR-52" value="NOME" style="text;html=1;align=center;verticalAlign=middle;whiteSpace=wrap;rounded=0;" vertex="1" parent="_Mf7b5W_oBMYDt20IuVR-51">
          <mxGeometry x="55" y="15" width="90" height="20" as="geometry" />
        </mxCell>
        <mxCell id="_Mf7b5W_oBMYDt20IuVR-53" value="" style="group;rotation=90;" connectable="0" vertex="1" parent="_Mf7b5W_oBMYDt20IuVR-51">
          <mxGeometry x="80" y="45" width="40" height="20" as="geometry" />
        </mxCell>
        <mxCell id="_Mf7b5W_oBMYDt20IuVR-54" value="" style="ellipse;whiteSpace=wrap;html=1;aspect=fixed;fillColor=#FAFAFA;rotation=-90;labelBackgroundColor=default;" vertex="1" parent="_Mf7b5W_oBMYDt20IuVR-53">
          <mxGeometry x="10" y="-10" width="20" height="20" as="geometry" />
        </mxCell>
        <mxCell id="_Mf7b5W_oBMYDt20IuVR-55" value="" style="endArrow=none;html=1;rounded=0;entryX=0;entryY=0.5;entryDx=0;entryDy=0;" edge="1" parent="_Mf7b5W_oBMYDt20IuVR-53" target="_Mf7b5W_oBMYDt20IuVR-54">
          <mxGeometry width="50" height="50" relative="1" as="geometry">
            <mxPoint x="20" y="30" as="sourcePoint" />
            <mxPoint x="-5" as="targetPoint" />
          </mxGeometry>
        </mxCell>
        <mxCell id="_Mf7b5W_oBMYDt20IuVR-56" value="" style="group" connectable="0" vertex="1" parent="_Mf7b5W_oBMYDt20IuVR-51">
          <mxGeometry x="109" width="90" height="75" as="geometry" />
        </mxCell>
        <mxCell id="_Mf7b5W_oBMYDt20IuVR-57" value="PREZZO" style="text;html=1;align=center;verticalAlign=middle;whiteSpace=wrap;rounded=0;" vertex="1" parent="_Mf7b5W_oBMYDt20IuVR-56">
          <mxGeometry y="15" width="90" height="20" as="geometry" />
        </mxCell>
        <mxCell id="_Mf7b5W_oBMYDt20IuVR-58" value="" style="group;rotation=90;" connectable="0" vertex="1" parent="_Mf7b5W_oBMYDt20IuVR-56">
          <mxGeometry x="25" y="45" width="40" height="20" as="geometry" />
        </mxCell>
        <mxCell id="_Mf7b5W_oBMYDt20IuVR-59" value="" style="ellipse;whiteSpace=wrap;html=1;aspect=fixed;fillColor=#FAFAFA;rotation=-90;labelBackgroundColor=default;" vertex="1" parent="_Mf7b5W_oBMYDt20IuVR-58">
          <mxGeometry x="10" y="-10" width="20" height="20" as="geometry" />
        </mxCell>
        <mxCell id="_Mf7b5W_oBMYDt20IuVR-60" value="" style="endArrow=none;html=1;rounded=0;entryX=0;entryY=0.5;entryDx=0;entryDy=0;" edge="1" parent="_Mf7b5W_oBMYDt20IuVR-58" target="_Mf7b5W_oBMYDt20IuVR-59">
          <mxGeometry width="50" height="50" relative="1" as="geometry">
            <mxPoint x="20" y="30" as="sourcePoint" />
            <mxPoint x="-5" as="targetPoint" />
          </mxGeometry>
        </mxCell>
        <mxCell id="_Mf7b5W_oBMYDt20IuVR-92" value="&lt;font style=&quot;font-size: 8px;&quot;&gt;APPARTIENE&lt;/font&gt;" style="rhombus;whiteSpace=wrap;html=1;" vertex="1" parent="_Mf7b5W_oBMYDt20IuVR-51">
          <mxGeometry x="-40" y="17" width="80" height="41" as="geometry" />
        </mxCell>
        <mxCell id="_Mf7b5W_oBMYDt20IuVR-65" value="CAT" style="text;html=1;align=center;verticalAlign=middle;whiteSpace=wrap;rounded=0;" vertex="1" parent="1">
          <mxGeometry x="392" y="252" width="90" height="25" as="geometry" />
        </mxCell>
        <mxCell id="_Mf7b5W_oBMYDt20IuVR-66" value="" style="group;rotation=90;" connectable="0" vertex="1" parent="1">
          <mxGeometry x="417" y="285" width="40" height="20" as="geometry" />
        </mxCell>
        <mxCell id="_Mf7b5W_oBMYDt20IuVR-67" value="" style="ellipse;whiteSpace=wrap;html=1;aspect=fixed;fillColor=#FAFAFA;rotation=-90;labelBackgroundColor=default;" vertex="1" parent="_Mf7b5W_oBMYDt20IuVR-66">
          <mxGeometry x="10" y="-10" width="20" height="20" as="geometry" />
        </mxCell>
        <mxCell id="_Mf7b5W_oBMYDt20IuVR-68" value="" style="endArrow=none;html=1;rounded=0;entryX=0;entryY=0.5;entryDx=0;entryDy=0;" edge="1" parent="_Mf7b5W_oBMYDt20IuVR-66" target="_Mf7b5W_oBMYDt20IuVR-67">
          <mxGeometry width="50" height="50" relative="1" as="geometry">
            <mxPoint x="20" y="30" as="sourcePoint" />
            <mxPoint x="-5" as="targetPoint" />
          </mxGeometry>
        </mxCell>
        <mxCell id="_Mf7b5W_oBMYDt20IuVR-82" value="" style="group" connectable="0" vertex="1" parent="1">
          <mxGeometry x="442" y="310" width="134" height="55" as="geometry" />
        </mxCell>
        <mxCell id="_Mf7b5W_oBMYDt20IuVR-83" value="VEGET" style="text;html=1;align=left;verticalAlign=middle;whiteSpace=wrap;rounded=0;container=0;" vertex="1" parent="_Mf7b5W_oBMYDt20IuVR-82">
          <mxGeometry x="44" width="90" height="30" as="geometry" />
        </mxCell>
        <mxCell id="_Mf7b5W_oBMYDt20IuVR-84" value="" style="ellipse;whiteSpace=wrap;html=1;aspect=fixed;container=0;" vertex="1" parent="_Mf7b5W_oBMYDt20IuVR-82">
          <mxGeometry x="20" y="5" width="20" height="20" as="geometry" />
        </mxCell>
        <mxCell id="_Mf7b5W_oBMYDt20IuVR-85" value="" style="endArrow=none;html=1;rounded=0;entryX=0;entryY=0.5;entryDx=0;entryDy=0;" edge="1" parent="_Mf7b5W_oBMYDt20IuVR-82" target="_Mf7b5W_oBMYDt20IuVR-84">
          <mxGeometry width="50" height="50" relative="1" as="geometry">
            <mxPoint y="15" as="sourcePoint" />
            <mxPoint x="30" y="-10" as="targetPoint" />
          </mxGeometry>
        </mxCell>
        <mxCell id="_Mf7b5W_oBMYDt20IuVR-86" value="" style="group" connectable="0" vertex="1" parent="_Mf7b5W_oBMYDt20IuVR-82">
          <mxGeometry y="25" width="134" height="30" as="geometry" />
        </mxCell>
        <mxCell id="_Mf7b5W_oBMYDt20IuVR-87" value="PATH" style="text;html=1;align=left;verticalAlign=middle;whiteSpace=wrap;rounded=0;container=0;" vertex="1" parent="_Mf7b5W_oBMYDt20IuVR-86">
          <mxGeometry x="44" width="90" height="30" as="geometry" />
        </mxCell>
        <mxCell id="_Mf7b5W_oBMYDt20IuVR-88" value="" style="ellipse;whiteSpace=wrap;html=1;aspect=fixed;container=0;" vertex="1" parent="_Mf7b5W_oBMYDt20IuVR-86">
          <mxGeometry x="20" y="5" width="20" height="20" as="geometry" />
        </mxCell>
        <mxCell id="_Mf7b5W_oBMYDt20IuVR-89" value="" style="endArrow=none;html=1;rounded=0;entryX=0;entryY=0.5;entryDx=0;entryDy=0;" edge="1" parent="_Mf7b5W_oBMYDt20IuVR-86" target="_Mf7b5W_oBMYDt20IuVR-88">
          <mxGeometry width="50" height="50" relative="1" as="geometry">
            <mxPoint y="15" as="sourcePoint" />
            <mxPoint x="30" y="-10" as="targetPoint" />
          </mxGeometry>
        </mxCell>
        <mxCell id="_Mf7b5W_oBMYDt20IuVR-91" value="" style="endArrow=none;html=1;rounded=0;entryX=0.25;entryY=1;entryDx=0;entryDy=0;exitX=0.5;exitY=0;exitDx=0;exitDy=0;" edge="1" parent="1" source="_Mf7b5W_oBMYDt20IuVR-92" target="_Mf7b5W_oBMYDt20IuVR-1">
          <mxGeometry width="50" height="50" relative="1" as="geometry">
            <mxPoint x="240" y="250" as="sourcePoint" />
            <mxPoint x="70" y="280" as="targetPoint" />
          </mxGeometry>
        </mxCell>
        <mxCell id="_Mf7b5W_oBMYDt20IuVR-93" value="" style="endArrow=none;html=1;rounded=0;entryX=0.25;entryY=1;entryDx=0;entryDy=0;" edge="1" parent="1">
          <mxGeometry width="50" height="50" relative="1" as="geometry">
            <mxPoint x="320" y="340" as="sourcePoint" />
            <mxPoint x="240" y="300" as="targetPoint" />
            <Array as="points">
              <mxPoint x="240" y="340" />
            </Array>
          </mxGeometry>
        </mxCell>
        <mxCell id="_Mf7b5W_oBMYDt20IuVR-94" value="0:N" style="text;strokeColor=none;align=center;fillColor=none;html=1;verticalAlign=middle;whiteSpace=wrap;rounded=0;" vertex="1" parent="1">
          <mxGeometry x="190" y="200" width="60" height="30" as="geometry" />
        </mxCell>
        <mxCell id="_Mf7b5W_oBMYDt20IuVR-95" value="1:1" style="text;strokeColor=none;align=center;fillColor=none;html=1;verticalAlign=middle;whiteSpace=wrap;rounded=0;" vertex="1" parent="1">
          <mxGeometry x="250" y="315" width="60" height="30" as="geometry" />
        </mxCell>
        <mxCell id="_Mf7b5W_oBMYDt20IuVR-96" value="INGREDIENTE" style="rounded=0;whiteSpace=wrap;html=1;" vertex="1" parent="1">
          <mxGeometry x="550" y="420" width="120" height="40" as="geometry" />
        </mxCell>
        <mxCell id="_Mf7b5W_oBMYDt20IuVR-114" value="" style="group" connectable="0" vertex="1" parent="1">
          <mxGeometry x="560" y="345" width="137" height="75" as="geometry" />
        </mxCell>
        <mxCell id="_Mf7b5W_oBMYDt20IuVR-115" value="PESO" style="text;html=1;align=center;verticalAlign=middle;whiteSpace=wrap;rounded=0;" vertex="1" parent="_Mf7b5W_oBMYDt20IuVR-114">
          <mxGeometry y="15" width="90" height="20" as="geometry" />
        </mxCell>
        <mxCell id="_Mf7b5W_oBMYDt20IuVR-116" value="" style="group;rotation=90;" connectable="0" vertex="1" parent="_Mf7b5W_oBMYDt20IuVR-114">
          <mxGeometry x="25" y="45" width="40" height="20" as="geometry" />
        </mxCell>
        <mxCell id="_Mf7b5W_oBMYDt20IuVR-117" value="" style="ellipse;whiteSpace=wrap;html=1;aspect=fixed;fillColor=#FAFAFA;rotation=-90;labelBackgroundColor=default;" vertex="1" parent="_Mf7b5W_oBMYDt20IuVR-116">
          <mxGeometry x="10" y="-10" width="20" height="20" as="geometry" />
        </mxCell>
        <mxCell id="_Mf7b5W_oBMYDt20IuVR-118" value="" style="endArrow=none;html=1;rounded=0;entryX=0;entryY=0.5;entryDx=0;entryDy=0;" edge="1" parent="_Mf7b5W_oBMYDt20IuVR-116" target="_Mf7b5W_oBMYDt20IuVR-117">
          <mxGeometry width="50" height="50" relative="1" as="geometry">
            <mxPoint x="20" y="30" as="sourcePoint" />
            <mxPoint x="-5" as="targetPoint" />
          </mxGeometry>
        </mxCell>
        <mxCell id="_Mf7b5W_oBMYDt20IuVR-119" value="" style="group" connectable="0" vertex="1" parent="_Mf7b5W_oBMYDt20IuVR-114">
          <mxGeometry x="47" width="90" height="75" as="geometry" />
        </mxCell>
        <mxCell id="_Mf7b5W_oBMYDt20IuVR-120" value="VEGET" style="text;html=1;align=center;verticalAlign=middle;whiteSpace=wrap;rounded=0;" vertex="1" parent="_Mf7b5W_oBMYDt20IuVR-119">
          <mxGeometry y="15" width="90" height="20" as="geometry" />
        </mxCell>
        <mxCell id="_Mf7b5W_oBMYDt20IuVR-121" value="" style="group;rotation=90;" connectable="0" vertex="1" parent="_Mf7b5W_oBMYDt20IuVR-119">
          <mxGeometry x="25" y="45" width="40" height="20" as="geometry" />
        </mxCell>
        <mxCell id="_Mf7b5W_oBMYDt20IuVR-122" value="" style="ellipse;whiteSpace=wrap;html=1;aspect=fixed;fillColor=#FAFAFA;rotation=-90;labelBackgroundColor=default;" vertex="1" parent="_Mf7b5W_oBMYDt20IuVR-121">
          <mxGeometry x="10" y="-10" width="20" height="20" as="geometry" />
        </mxCell>
        <mxCell id="_Mf7b5W_oBMYDt20IuVR-123" value="" style="endArrow=none;html=1;rounded=0;entryX=0;entryY=0.5;entryDx=0;entryDy=0;" edge="1" parent="_Mf7b5W_oBMYDt20IuVR-121" target="_Mf7b5W_oBMYDt20IuVR-122">
          <mxGeometry width="50" height="50" relative="1" as="geometry">
            <mxPoint x="20" y="30" as="sourcePoint" />
            <mxPoint x="-5" as="targetPoint" />
          </mxGeometry>
        </mxCell>
        <mxCell id="_Mf7b5W_oBMYDt20IuVR-97" value="" style="group;rotation=-90;" connectable="0" vertex="1" parent="_Mf7b5W_oBMYDt20IuVR-114">
          <mxGeometry x="-62" y="-6" width="134" height="30" as="geometry" />
        </mxCell>
        <mxCell id="_Mf7b5W_oBMYDt20IuVR-98" value="" style="group;rotation=-180;" connectable="0" vertex="1" parent="_Mf7b5W_oBMYDt20IuVR-97">
          <mxGeometry x="40" y="11" width="54" height="71" as="geometry" />
        </mxCell>
        <mxCell id="_Mf7b5W_oBMYDt20IuVR-99" value="" style="group;rotation=-90;" connectable="0" vertex="1" parent="_Mf7b5W_oBMYDt20IuVR-98">
          <mxGeometry x="7" y="41" width="40" height="20" as="geometry" />
        </mxCell>
        <mxCell id="_Mf7b5W_oBMYDt20IuVR-100" value="" style="ellipse;whiteSpace=wrap;html=1;aspect=fixed;rotation=-90;movable=1;resizable=1;rotatable=1;deletable=1;editable=1;locked=0;connectable=1;fillColor=#000000;" vertex="1" parent="_Mf7b5W_oBMYDt20IuVR-99">
          <mxGeometry x="10" y="-10" width="20" height="20" as="geometry" />
        </mxCell>
        <mxCell id="_Mf7b5W_oBMYDt20IuVR-101" value="" style="endArrow=none;html=1;rounded=0;entryX=0;entryY=0.5;entryDx=0;entryDy=0;" edge="1" parent="_Mf7b5W_oBMYDt20IuVR-99" target="_Mf7b5W_oBMYDt20IuVR-100">
          <mxGeometry width="50" height="50" relative="1" as="geometry">
            <mxPoint x="20" y="30" as="sourcePoint" />
            <mxPoint x="-5" as="targetPoint" />
          </mxGeometry>
        </mxCell>
        <mxCell id="_Mf7b5W_oBMYDt20IuVR-102" value="NOME" style="text;html=1;align=center;verticalAlign=middle;whiteSpace=wrap;rounded=0;rotation=-1;movable=1;resizable=1;rotatable=1;deletable=1;editable=1;locked=0;connectable=1;" vertex="1" parent="_Mf7b5W_oBMYDt20IuVR-98">
          <mxGeometry y="5" width="54" height="30" as="geometry" />
        </mxCell>
        <mxCell id="_Mf7b5W_oBMYDt20IuVR-124" value="&lt;font style=&quot;font-size: 8px;&quot;&gt;CONTIENE&lt;/font&gt;" style="rhombus;whiteSpace=wrap;html=1;" vertex="1" parent="1">
          <mxGeometry x="342" y="419" width="80" height="41" as="geometry" />
        </mxCell>
        <mxCell id="_Mf7b5W_oBMYDt20IuVR-126" value="" style="endArrow=none;html=1;rounded=0;exitX=0.5;exitY=0;exitDx=0;exitDy=0;entryX=0.5;entryY=1;entryDx=0;entryDy=0;" edge="1" parent="1" source="_Mf7b5W_oBMYDt20IuVR-124" target="_Mf7b5W_oBMYDt20IuVR-47">
          <mxGeometry width="50" height="50" relative="1" as="geometry">
            <mxPoint x="140" y="480" as="sourcePoint" />
            <mxPoint x="377" y="360" as="targetPoint" />
          </mxGeometry>
        </mxCell>
        <mxCell id="_Mf7b5W_oBMYDt20IuVR-128" value="&lt;font style=&quot;font-size: 8px;&quot;&gt;CONTIENE&lt;/font&gt;" style="rhombus;whiteSpace=wrap;html=1;" vertex="1" parent="1">
          <mxGeometry x="790" y="419" width="80" height="41" as="geometry" />
        </mxCell>
        <mxCell id="_Mf7b5W_oBMYDt20IuVR-129" value="" style="endArrow=none;html=1;rounded=0;exitX=0.5;exitY=0;exitDx=0;exitDy=0;entryX=0.5;entryY=1;entryDx=0;entryDy=0;" edge="1" parent="1" source="_Mf7b5W_oBMYDt20IuVR-128">
          <mxGeometry width="50" height="50" relative="1" as="geometry">
            <mxPoint x="588" y="480" as="sourcePoint" />
            <mxPoint x="830" y="355" as="targetPoint" />
          </mxGeometry>
        </mxCell>
        <mxCell id="_Mf7b5W_oBMYDt20IuVR-130" value="" style="endArrow=none;html=1;rounded=0;entryX=0;entryY=0.5;entryDx=0;entryDy=0;exitX=1;exitY=0.5;exitDx=0;exitDy=0;" edge="1" parent="1" source="_Mf7b5W_oBMYDt20IuVR-124" target="_Mf7b5W_oBMYDt20IuVR-96">
          <mxGeometry width="50" height="50" relative="1" as="geometry">
            <mxPoint x="440" y="580" as="sourcePoint" />
            <mxPoint x="490" y="530" as="targetPoint" />
          </mxGeometry>
        </mxCell>
        <mxCell id="_Mf7b5W_oBMYDt20IuVR-131" value="" style="endArrow=none;html=1;rounded=0;entryX=0;entryY=0.5;entryDx=0;entryDy=0;exitX=1;exitY=0.5;exitDx=0;exitDy=0;" edge="1" parent="1" target="_Mf7b5W_oBMYDt20IuVR-128">
          <mxGeometry width="50" height="50" relative="1" as="geometry">
            <mxPoint x="670" y="439.25" as="sourcePoint" />
            <mxPoint x="798" y="439.25" as="targetPoint" />
          </mxGeometry>
        </mxCell>
      </root>
    </mxGraphModel>
  </diagram>
</mxfile>
